<?xml version="1.0" encoding="utf-8"?>
<!-- Svg Vector Icons : http://www.onlinewebfonts.com/icon -->
<!DOCTYPE svg PUBLIC "-//W3C//DTD SVG 1.1//EN" "http://www.w3.org/Graphics/SVG/1.1/DTD/svg11.dtd">
<svg version="1.1" xmlns="http://www.w3.org/2000/svg" xmlns:xlink="http://www.w3.org/1999/xlink" x="0px" y="0px" viewBox="0 0 256 256" enable-background="new 0 0 256 256" xml:space="preserve">
<metadata> Svg Vector Icons : http://www.onlinewebfonts.com/icon </metadata>
<g><g><g><path fill="#000000" d="M119.7,10.2c-22.3,3.1-41.5,15.4-53.8,34.3c-5,7.7-8.4,16-10.5,25.8c-1.5,6.8-1.5,19.8,0,26.6c1.5,6.7,3.1,11.6,5.6,17c10.2,21.6,29.9,37.1,53.6,42.2c7,1.5,19.8,1.5,26.8,0c10.3-2.2,20.5-6.6,28.6-12.4c5.6-4,14.1-12.5,18.2-18.2c5.8-8.2,10.2-18.3,12.4-28.6c0.9-4,1.1-6.3,1.1-13.4s-0.2-9.4-1.1-13.4c-5.1-23.7-20.6-43.4-42.2-53.6c-9.4-4.4-17.9-6.4-28.5-6.7C125.9,9.9,121.3,10,119.7,10.2z M141.1,25.9c22.7,4.8,39.8,21.9,44.7,44.8c0.9,4,1.1,6.3,1.1,12.9c0,6.7-0.2,9-1.1,12.9c-4.9,23-21.9,39.9-44.9,44.9c-6.9,1.5-18.9,1.5-25.8,0c-23-4.9-40-21.9-44.9-44.9c-1.5-7-1.5-18.9,0-25.9c5.3-24.4,23.4-41.4,48.5-45.5C124.2,24.3,135.1,24.7,141.1,25.9z"/><path fill="#000000" d="M58,144.5c-2.3,0.6-11.8,8.8-17.4,15.1c-19.1,21.5-30.4,49.5-30.6,75.4c0,7.2,0.1,7.8,3.1,10l1.2,1H128h113.6l1.2-1c3-2.2,3.2-2.9,3.1-10c-0.2-18.5-6.1-38.7-16.7-56.6c-7.3-12.2-17.9-24.3-27.9-31.9c-3.3-2.5-5.7-2.9-8.7-1.3c-2.8,1.4-4.4,4.5-3.9,7.6c0.3,2.4,1.6,3.8,8.3,9.4c6.6,5.5,14.2,14.5,19.2,22.5c7.9,12.8,13.5,29.1,14.6,43l0.3,3.7H128H25v-1.8c0-4.8,2.6-17.2,5.1-24.8c2-5.9,7.6-17.2,11.2-22.6c5.8-8.6,12.8-16.3,20.7-22.9c3.1-2.6,4.2-3.7,4.8-5.4C68.9,148.6,63.9,143.1,58,144.5z"/></g></g></g>
</svg>