<?xml version="1.0" encoding="utf-8"?>
<!-- Svg Vector Icons : http://www.onlinewebfonts.com/icon -->
<!DOCTYPE svg PUBLIC "-//W3C//DTD SVG 1.1//EN" "http://www.w3.org/Graphics/SVG/1.1/DTD/svg11.dtd">
<svg version="1.1" xmlns="http://www.w3.org/2000/svg" xmlns:xlink="http://www.w3.org/1999/xlink" x="0px" y="0px" viewBox="0 0 256 256" enable-background="new 0 0 256 256" xml:space="preserve">
<metadata> Svg Vector Icons : http://www.onlinewebfonts.com/icon </metadata>
<g><g><g><path fill="#000000" d="M67.5,27.2C53.9,29.7,42,36,31.9,46.2c-8.6,8.7-14.6,18.3-18.3,29.6C10.8,84.5,10,89.5,10,99.2c0,9.8,1,15.6,4.1,24.6c7.6,22.1,24.3,41.8,58.2,68.9c4.2,3.3,12.2,9.6,17.8,13.9c5.6,4.3,13.4,10.4,17.4,13.4c8.6,6.7,11.5,8.3,16.8,9c7.9,1.1,13.3-0.7,21.7-7.4c2.8-2.3,13-10.1,22.6-17.4c9.6-7.3,20.3-15.6,23.6-18.4c33.2-27.1,49.8-51.4,53.3-78.1c3-22.9-4.7-45.1-21.3-61.7c-9.9-9.9-20.3-15.7-33.1-18.5c-4.8-1-16.9-1.5-21.9-0.8c-14.2,2-25.6,7.7-36.9,18.4c-2.1,2-3.9,3.6-4.1,3.6s-2.1-1.6-4.2-3.6c-10.3-9.6-19.7-14.7-32.4-17.6C86.6,26.5,72.5,26.3,67.5,27.2z M182.5,40.5c4.5,0.4,10.7,2.3,16.4,5c17.2,8.1,28.1,22.4,31.9,41.3c1.1,5.7,1.1,17.4,0,23.1c-3.8,19.4-16.3,38-38.8,57.6c-7.6,6.6-14.7,12.3-33.5,26.6c-8.9,6.8-18.3,14-20.9,16.1c-2.6,2.1-5.5,4.2-6.3,4.8c-1.9,1.1-4.9,1.1-6.7,0c-3.7-2.4-44.5-34.2-52.6-41c-21.3-17.8-33.3-31.4-40.6-46c-6-12.1-8.3-24.8-6.6-37.3C27.4,70.8,38,55.3,54.9,46.5c8.5-4.4,15.7-6.3,24.3-6.3c13,0,22.9,4.3,33.9,14.7c6.2,5.8,11.3,7.8,17.4,6.8c4.7-0.9,7.4-2.4,12.6-7.1c7.1-6.7,13-10.2,20.7-12.6c4-1.3,10.7-2.2,13.8-1.9C178.5,40.2,180.7,40.4,182.5,40.5z"/></g></g></g>
</svg>